<svg width="40" height="40" viewBox="0 0 40 40" fill="none" xmlns="http://www.w3.org/2000/svg">
<g id="mingcute:target-line">
<g id="Group">
<path id="Vector" d="M20 3.33331C20.6255 3.33331 21.2422 3.3672 21.85 3.43498C22.0675 3.45906 22.2782 3.52575 22.47 3.63124C22.6618 3.73674 22.8309 3.87898 22.9677 4.04984C23.1045 4.2207 23.2064 4.41684 23.2674 4.62705C23.3284 4.83725 23.3474 5.05742 23.3233 5.27498C23.2992 5.49254 23.2325 5.70322 23.127 5.895C23.0215 6.08679 22.8793 6.25591 22.7085 6.39272C22.5376 6.52953 22.3415 6.63135 22.1312 6.69237C21.921 6.75338 21.7009 6.77239 21.4833 6.74831C18.7367 6.44105 15.9625 6.99488 13.5444 8.33319C11.1264 9.67149 9.1839 11.7281 7.98576 14.2186C6.78761 16.7091 6.39298 19.5104 6.85647 22.235C7.31995 24.9596 8.61863 27.4728 10.5729 29.4271C12.5271 31.3813 15.0404 32.68 17.7649 33.1435C20.4895 33.607 23.2908 33.2124 25.7813 32.0142C28.2718 30.8161 30.3285 28.8736 31.6668 26.4555C33.0051 24.0374 33.5589 21.2632 33.2516 18.5166C33.2276 18.2991 33.2466 18.0789 33.3076 17.8687C33.3686 17.6585 33.4704 17.4624 33.6072 17.2915C33.8835 16.9464 34.2856 16.7253 34.725 16.6766C35.1644 16.628 35.605 16.7559 35.9501 17.0322C36.121 17.169 36.2632 17.3382 36.3687 17.53C36.4742 17.7217 36.5409 17.9324 36.565 18.15C36.6316 18.7578 36.6655 19.3744 36.6666 20C36.6666 29.205 29.205 36.6666 20 36.6666C10.795 36.6666 3.33331 29.205 3.33331 20C3.33331 10.795 10.795 3.33331 20 3.33331ZM19.9466 13.1283C20.0565 13.5562 19.992 14.0102 19.7673 14.3905C19.5426 14.7708 19.1761 15.0464 18.7483 15.1566C17.5731 15.4645 16.55 16.1894 15.87 17.1962C15.19 18.2029 14.8996 19.4226 15.0528 20.6278C15.2061 21.833 15.7926 22.9412 16.7029 23.7457C17.6132 24.5502 18.7851 24.996 20 25C21.1088 25.0004 22.1864 24.6323 23.0631 23.9535C23.9399 23.2746 24.5661 22.3236 24.8433 21.25C24.9615 20.8306 25.2391 20.4741 25.6169 20.2569C25.9947 20.0398 26.4424 19.9792 26.8643 20.0881C27.2862 20.1971 27.6486 20.4669 27.874 20.8399C28.0994 21.2128 28.1697 21.6591 28.07 22.0833C27.5587 24.0432 26.3514 25.7499 24.6736 26.8846C22.9958 28.0193 20.9622 28.5044 18.9529 28.2492C16.9436 27.994 15.0959 27.016 13.755 25.4979C12.4141 23.9798 11.6718 22.0255 11.6666 20C11.6664 18.1523 12.2801 16.3569 13.4115 14.8961C14.5429 13.4353 16.1276 12.3919 17.9166 11.93C18.1286 11.8753 18.3493 11.863 18.566 11.8937C18.7828 11.9243 18.9914 11.9974 19.1799 12.1086C19.3684 12.2199 19.5331 12.3673 19.6647 12.5422C19.7963 12.7172 19.8921 12.9163 19.9466 13.1283ZM30.84 3.54498C31.1442 3.67111 31.4042 3.88454 31.5872 4.15833C31.7703 4.43212 31.8681 4.75399 31.8683 5.08331V8.13331H34.9166C35.2462 8.13338 35.5684 8.23117 35.8424 8.41431C36.1164 8.59745 36.33 8.85772 36.4561 9.16222C36.5822 9.46672 36.6152 9.80178 36.551 10.125C36.4867 10.4483 36.328 10.7452 36.095 10.9783L30.2 16.8666C29.8875 17.1792 29.4636 17.3549 29.0216 17.355H25L21.9533 20.4033C21.6406 20.716 21.2164 20.8917 20.7741 20.8917C20.3319 20.8917 19.9077 20.716 19.595 20.4033C19.2822 20.0906 19.1066 19.6664 19.1066 19.2241C19.1066 18.7819 19.2822 18.3577 19.595 18.045L22.6433 15V10.9766C22.6434 10.5347 22.8191 10.1108 23.1316 9.79831L29.0233 3.90498C29.2564 3.67176 29.5534 3.51291 29.8768 3.44853C30.2002 3.38415 30.5354 3.41714 30.84 3.54331M28.535 9.10498L25.9766 11.6666V14.0233H28.3333L30.8933 11.465H30.2016C29.7596 11.465 29.3357 11.2894 29.0231 10.9768C28.7106 10.6643 28.535 10.2403 28.535 9.79831V9.10498Z" fill="#1B7200"/>
</g>
</g>
</svg>
