<svg width="41" height="40" viewBox="0 0 41 40" fill="none" xmlns="http://www.w3.org/2000/svg">
<g id="mdi:worker-outline">
<path id="Vector" d="M27.1667 15C27.1667 23.2914 15.5512 23.8439 14.0031 16.6576C13.8092 15.7578 14.5795 15 15.5 15C16.4205 15 17.1111 15.7922 17.5255 16.6141C18.9108 19.3619 23.8334 18.8239 23.8334 15M33.8334 30C33.8334 32.7615 31.5948 35 28.8334 35H12.1667C9.40526 35 7.16669 32.7615 7.16669 30C7.16669 25.55 16.05 23.3334 20.5 23.3334C24.95 23.3334 33.8334 25.55 33.8334 30ZM30.6667 30C30.6667 28.9334 25.45 26.5 20.5 26.5C15.55 26.5 10.3334 28.9334 10.3334 30C10.3334 31.0126 11.1542 31.8334 12.1667 31.8334H30.6667M21.3334 3.33337C21.8 3.33337 22.1667 3.70004 22.1667 4.16671V8.33337C22.1667 8.79361 22.5398 9.16671 23 9.16671C23.4603 9.16671 23.8334 8.79361 23.8334 8.33337V7.54208C23.8334 6.35572 25.0705 5.6152 25.875 6.48707C26.174 6.81107 26.4407 7.16632 26.6698 7.54818C27.1354 8.32425 27.4312 9.18531 27.543 10.0748C27.6273 10.745 27.5745 11.0907 28.0934 11.5231C28.6872 12.018 28.1876 13.3334 27.4146 13.3334H13.5613C12.7911 13.3334 12.2612 12.0396 12.8517 11.5451C13.3894 11.0947 13.3705 10.7214 13.4633 10.0262C13.5797 9.15392 13.8731 8.3101 14.3303 7.54818C14.5594 7.16632 14.826 6.81107 15.125 6.48707C15.9295 5.6152 17.1667 6.35571 17.1667 7.54208V8.33337C17.1667 8.79361 17.5398 9.16671 18 9.16671C18.4603 9.16671 18.8334 8.79361 18.8334 8.33337V4.16671C18.8334 3.70004 19.2 3.33337 19.6667 3.33337" fill="#1B7200"/>
</g>
</svg>
