<svg width="41" height="40" viewBox="0 0 41 40" fill="none" xmlns="http://www.w3.org/2000/svg">
<g id="ci:note-edit">
<path id="Vector" d="M17.1667 6.66665H12.5C10.6334 6.66665 9.70002 6.66665 8.98669 7.02998C8.35951 7.34955 7.84959 7.85947 7.53002 8.48665C7.16669 9.19998 7.16669 10.1333 7.16669 12V28C7.16669 29.8666 7.16669 30.8 7.53002 31.5133C7.84959 32.1405 8.35951 32.6504 8.98669 32.97C9.69835 33.3333 10.6317 33.3333 12.495 33.3333H28.505C30.3684 33.3333 31.3 33.3333 32.0117 32.97C32.64 32.65 33.15 32.14 33.47 31.5133C33.8334 30.8 33.8334 29.8683 33.8334 28.005V23.3333M27.1667 8.33331L18.2022 17.2978C17.5392 17.9608 17.1667 18.8601 17.1667 19.7978V19.7978C17.1667 21.7504 18.7496 23.3333 20.7022 23.3333V23.3333C21.6399 23.3333 22.5392 22.9608 23.2022 22.2978L32.1667 13.3333M27.1667 8.33331L29.6667 5.83331C31.0474 4.4526 33.286 4.4526 34.6667 5.83331V5.83331C36.0474 7.21402 36.0474 9.4526 34.6667 10.8333L32.1667 13.3333M27.1667 8.33331L32.1667 13.3333" stroke="#1B7200" stroke-width="3" stroke-linecap="round" stroke-linejoin="round"/>
</g>
</svg>
