<svg width="40" height="40" viewBox="0 0 40 40" fill="none" xmlns="http://www.w3.org/2000/svg">
<g id="uil:calender">
<path id="Vector" d="M31.6666 6.66671H28.3333V5.00004C28.3333 4.55801 28.1577 4.13409 27.8452 3.82153C27.5326 3.50897 27.1087 3.33337 26.6666 3.33337C26.2246 3.33337 25.8007 3.50897 25.4881 3.82153C25.1756 4.13409 25 4.55801 25 5.00004V6.66671H15V5.00004C15 4.55801 14.8244 4.13409 14.5118 3.82153C14.1993 3.50897 13.7753 3.33337 13.3333 3.33337C12.8913 3.33337 12.4674 3.50897 12.1548 3.82153C11.8422 4.13409 11.6666 4.55801 11.6666 5.00004V6.66671H8.33331C7.00723 6.66671 5.73546 7.19349 4.79778 8.13117C3.8601 9.06886 3.33331 10.3406 3.33331 11.6667V31.6667C3.33331 32.9928 3.8601 34.2646 4.79778 35.2022C5.73546 36.1399 7.00723 36.6667 8.33331 36.6667H31.6666C32.9927 36.6667 34.2645 36.1399 35.2022 35.2022C36.1399 34.2646 36.6666 32.9928 36.6666 31.6667V11.6667C36.6666 10.3406 36.1399 9.06886 35.2022 8.13117C34.2645 7.19349 32.9927 6.66671 31.6666 6.66671ZM33.3333 31.6667C33.3333 32.1087 33.1577 32.5327 32.8452 32.8452C32.5326 33.1578 32.1087 33.3334 31.6666 33.3334H8.33331C7.89129 33.3334 7.46736 33.1578 7.1548 32.8452C6.84224 32.5327 6.66665 32.1087 6.66665 31.6667V20H33.3333V31.6667ZM33.3333 16.6667H6.66665V11.6667C6.66665 11.2247 6.84224 10.8008 7.1548 10.4882C7.46736 10.1756 7.89129 10 8.33331 10H11.6666V11.6667C11.6666 12.1087 11.8422 12.5327 12.1548 12.8452C12.4674 13.1578 12.8913 13.3334 13.3333 13.3334C13.7753 13.3334 14.1993 13.1578 14.5118 12.8452C14.8244 12.5327 15 12.1087 15 11.6667V10H25V11.6667C25 12.1087 25.1756 12.5327 25.4881 12.8452C25.8007 13.1578 26.2246 13.3334 26.6666 13.3334C27.1087 13.3334 27.5326 13.1578 27.8452 12.8452C28.1577 12.5327 28.3333 12.1087 28.3333 11.6667V10H31.6666C32.1087 10 32.5326 10.1756 32.8452 10.4882C33.1577 10.8008 33.3333 11.2247 33.3333 11.6667V16.6667Z" fill="#1B7200"/>
</g>
</svg>
