<svg width="41" height="40" viewBox="0 0 41 40" fill="none" xmlns="http://www.w3.org/2000/svg">
<g id="icon-park-outline:find">
<g id="Group">
<path id="Vector" d="M3.83334 5.83337H37.1667M3.83334 19.1667H13M3.83334 32.5H13" stroke="#1B7200" stroke-width="3" stroke-linecap="round"/>
<path id="Vector_2" d="M26.75 28.3334C28.6286 28.3334 30.4303 27.5871 31.7587 26.2588C33.0871 24.9304 33.8334 23.1287 33.8334 21.2501C33.8334 19.3715 33.0871 17.5698 31.7587 16.2414C30.4303 14.913 28.6286 14.1667 26.75 14.1667C24.8714 14.1667 23.0697 14.913 21.7413 16.2414C20.413 17.5698 19.6667 19.3715 19.6667 21.2501C19.6667 23.1287 20.413 24.9304 21.7413 26.2588C23.0697 27.5871 24.8714 28.3334 26.75 28.3334Z" stroke="#1B7200" stroke-width="3"/>
<path id="Vector_3" d="M31.3333 26.6667L37.1667 32.5417" stroke="#1B7200" stroke-width="3" stroke-linecap="round"/>
</g>
</g>
</svg>
