<svg width="41" height="40" viewBox="0 0 41 40" fill="none" xmlns="http://www.w3.org/2000/svg">
<g id="codicon:graph">
<path id="Vector" fill-rule="evenodd" clip-rule="evenodd" d="M3.625 34.375C4.02518 34.7752 4.56794 35 5.13388 35H36.75C37.4404 35 38 34.4404 38 33.75C38 33.0596 37.4404 32.5 36.75 32.5H15.5C9.97715 32.5 5.5 28.0228 5.5 22.5V1.25C5.5 0.559645 4.94036 0 4.25 0C3.55964 0 3 0.559644 3 1.25V32.8661C3 33.4321 3.22482 33.9748 3.625 34.375ZM8.625 29.375C8.22482 28.9748 8 28.4321 8 27.8661V9.63388C8 9.06794 8.22482 8.52518 8.625 8.125C9.02518 7.72482 9.56794 7.5 10.1339 7.5H13.3661C13.9321 7.5 14.4748 7.72482 14.875 8.125C15.2752 8.52518 15.5 9.06794 15.5 9.63388V27.8661C15.5 28.4321 15.2752 28.9748 14.875 29.375C14.4748 29.7752 13.9321 30 13.3661 30H10.1339C9.56794 30 9.02518 29.7752 8.625 29.375ZM11.75 27.5C12.4404 27.5 13 26.9404 13 26.25V11.25C13 10.5596 12.4404 10 11.75 10C11.0596 10 10.5 10.5596 10.5 11.25V26.25C10.5 26.9404 11.0596 27.5 11.75 27.5ZM28.625 3.125C28.2248 3.52518 28 4.06794 28 4.63388V27.8661C28 28.4321 28.2248 28.9748 28.625 29.375C29.0252 29.7752 29.5679 30 30.1339 30H33.3661C33.9321 30 34.4748 29.7752 34.875 29.375C35.2752 28.9748 35.5 28.4321 35.5 27.8661V4.63388C35.5 4.06794 35.2752 3.52518 34.875 3.125C34.4748 2.72482 33.9321 2.5 33.3661 2.5H30.1339C29.5679 2.5 29.0252 2.72482 28.625 3.125ZM31.75 5C32.4404 5 33 5.55964 33 6.25V26.25C33 26.9404 32.4404 27.5 31.75 27.5C31.0596 27.5 30.5 26.9404 30.5 26.25V6.25C30.5 5.55964 31.0596 5 31.75 5ZM18.625 29.375C18.2248 28.9748 18 28.4321 18 27.8661V14.6339C18 14.0679 18.2248 13.5252 18.625 13.125C19.0252 12.7248 19.5679 12.5 20.1339 12.5H23.3661C23.9321 12.5 24.4748 12.7248 24.875 13.125C25.2752 13.5252 25.5 14.0679 25.5 14.6339V27.8661C25.5 28.4321 25.2752 28.9748 24.875 29.375C24.4748 29.7752 23.9321 30 23.3661 30H20.1339C19.5679 30 19.0252 29.7752 18.625 29.375ZM21.75 27.5C22.4404 27.5 23 26.9404 23 26.25V16.25C23 15.5596 22.4404 15 21.75 15C21.0596 15 20.5 15.5596 20.5 16.25V26.25C20.5 26.9404 21.0596 27.5 21.75 27.5Z" fill="#1B7200"/>
</g>
</svg>
