<svg width="40" height="40" viewBox="0 0 40 40" fill="none" xmlns="http://www.w3.org/2000/svg">
<g id="tabler:books">
<g id="Group">
<path id="Vector" d="M15 8.33329C15 7.89127 14.8244 7.46734 14.5119 7.15478C14.1993 6.84222 13.7754 6.66663 13.3333 6.66663H10C9.55798 6.66663 9.13406 6.84222 8.8215 7.15478C8.50894 7.46734 8.33334 7.89127 8.33334 8.33329V31.6666C8.33334 32.1087 8.50894 32.5326 8.8215 32.8451C9.13406 33.1577 9.55798 33.3333 10 33.3333H13.3333C13.7754 33.3333 14.1993 33.1577 14.5119 32.8451C14.8244 32.5326 15 32.1087 15 31.6666M15 8.33329V31.6666M15 8.33329C15 7.89127 15.1756 7.46734 15.4882 7.15478C15.8007 6.84222 16.2246 6.66663 16.6667 6.66663H20C20.442 6.66663 20.866 6.84222 21.1785 7.15478C21.4911 7.46734 21.6667 7.89127 21.6667 8.33329V31.6666C21.6667 32.1087 21.4911 32.5326 21.1785 32.8451C20.866 33.1577 20.442 33.3333 20 33.3333H16.6667C16.2246 33.3333 15.8007 33.1577 15.4882 32.8451C15.1756 32.5326 15 32.1087 15 31.6666M8.33334 13.3333H15M15 26.6666H21.6667" stroke="#1B7200" stroke-width="3" stroke-linecap="round" stroke-linejoin="round"/>
<path id="Vector_2" d="M23.3333 15L30 13.3333M26.6667 26.6667L33.205 25.0333M23.005 7.59999L26.645 6.71666C27.5817 6.49166 28.5333 7.03332 28.7817 7.93666L34.94 30.3C35.0487 30.7094 35.0005 31.1446 34.8051 31.5204C34.6096 31.8962 34.2809 32.1855 33.8833 32.3317L33.6617 32.4L30.0217 33.2833C29.085 33.5083 28.1333 32.9667 27.885 32.0633L21.7267 9.69999C21.618 9.29057 21.6661 8.85534 21.8616 8.47954C22.057 8.10375 22.3858 7.81445 22.7833 7.66832L23.005 7.59999Z" stroke="#1B7200" stroke-width="3" stroke-linecap="round" stroke-linejoin="round"/>
</g>
</g>
</svg>
